<svg width="89" height="89" viewBox="0 0 89 89" fill="none" xmlns="http://www.w3.org/2000/svg">
<path d="M35.4424 52.5173C35.4419 52.1445 35.2936 51.787 35.0299 51.5233C34.7663 51.2596 34.4088 51.1113 34.0359 51.1108H31.5078V53.931H34.0431C34.2278 53.9301 34.4105 53.8927 34.5808 53.8212C34.7511 53.7496 34.9056 53.6453 35.0355 53.514C35.1655 53.3827 35.2683 53.2271 35.3381 53.0561C35.4079 52.8851 35.4434 52.702 35.4424 52.5173Z" fill="white"/>
<path d="M42.525 46.2549C42.0294 46.2549 41.5541 46.4518 41.2036 46.8022C40.8531 47.1527 40.6562 47.628 40.6562 48.1236V52.0457C40.6562 52.5413 40.8531 53.0167 41.2036 53.3671C41.5541 53.7176 42.0294 53.9145 42.525 53.9145C43.0206 53.9145 43.496 53.7176 43.8464 53.3671C44.1969 53.0167 44.3938 52.5413 44.3938 52.0457V48.1236C44.3938 47.628 44.1969 47.1527 43.8464 46.8022C43.496 46.4518 43.0206 46.2549 42.525 46.2549Z" fill="white"/>
<path d="M34.1444 48.3872C34.2695 48.1725 34.3354 47.9285 34.3355 47.68C34.3356 47.4315 34.2698 47.1874 34.1449 46.9725C34.02 46.7577 33.8405 46.5798 33.6245 46.4569C33.4085 46.3341 33.1638 46.2706 32.9153 46.273H31.5088V49.0932H32.9171C33.1658 49.0947 33.4106 49.0302 33.6262 48.9061C33.8418 48.7821 34.0207 48.603 34.1444 48.3872Z" fill="white"/>
<path d="M70.5452 46.2729H68.8359V53.9307H70.5452C71.0028 53.9307 71.4417 53.749 71.7653 53.4254C72.0889 53.1018 72.2707 52.6629 72.2707 52.2053V47.9984C72.2707 47.5408 72.0889 47.1019 71.7653 46.7783C71.4417 46.4547 71.0028 46.2729 70.5452 46.2729Z" fill="white"/>
<path d="M44.5009 0C19.9239 0 0 19.9239 0 44.5009C0 69.0779 19.9239 89 44.5009 89C69.0779 89 89 69.0779 89 44.5009C89 19.9239 69.0779 0 44.5009 0ZM47.5862 44.2357H49.6109V52.2465C49.6251 52.6811 49.8077 53.0931 50.1202 53.3955C50.4326 53.6979 50.8504 53.867 51.2852 53.867C51.7201 53.867 52.1378 53.6979 52.4503 53.3955C52.7627 53.0931 52.9454 52.6811 52.9596 52.2465V44.2357H54.9842V53.92H55.8622V55.9446H54.8499C54.5752 55.9445 54.3038 55.8845 54.0547 55.7688C53.8056 55.653 53.5847 55.4844 53.4075 55.2745C52.8534 55.663 52.2033 55.8921 51.528 55.9367C50.8528 55.9813 50.1782 55.8397 49.5778 55.5274C48.9774 55.2151 48.4742 54.7441 48.1231 54.1655C47.7719 53.587 47.5862 52.9232 47.5862 52.2465V44.2357ZM31.3694 23.8298C31.5324 20.1067 34.6196 17.299 38.547 17.299C43.4922 17.299 45.1925 20.7696 45.5956 21.8339L41.7022 23.3103C41.3833 22.4664 40.5752 21.4612 38.547 21.4612C36.8628 21.4612 35.5925 22.5362 35.528 24.0144C35.5029 24.5519 35.4312 26.1645 39.2207 27.4706C44.7876 29.3806 45.8286 32.6469 45.7228 35.0496C45.5598 38.7728 42.4727 41.5804 38.5452 41.5804C33.6001 41.5804 31.8997 38.1098 31.4966 37.0456L35.39 35.5692C35.7089 36.4131 36.517 37.4182 38.5452 37.4182C40.2294 37.4182 41.4998 36.3432 41.5643 34.865C41.5876 34.3275 41.661 32.715 37.8715 31.4088C32.3047 29.5042 31.2619 26.2397 31.3694 23.8298ZM46.4198 48.1184V52.0404C46.4198 53.073 46.0096 54.0633 45.2795 54.7935C44.5493 55.5237 43.559 55.9338 42.5264 55.9338C41.4938 55.9338 40.5035 55.5237 39.7734 54.7935C39.0432 54.0633 38.633 53.073 38.633 52.0404V48.1237C38.633 47.0912 39.0432 46.1009 39.7734 45.3707C40.5035 44.6405 41.4938 44.2303 42.5264 44.2303C43.559 44.2303 44.5493 44.6405 45.2795 45.3707C46.0096 46.1009 46.4198 47.0912 46.4198 48.1237V48.1184ZM28.6066 46.2675V44.2554H32.9174C33.5368 44.2549 34.1448 44.4221 34.6768 44.7393C35.2088 45.0565 35.6449 45.5119 35.9389 46.057C36.2329 46.6022 36.3737 47.2168 36.3465 47.8356C36.3193 48.4544 36.1249 49.0542 35.7842 49.5715C36.4289 49.9549 36.9301 50.5392 37.211 51.2347C37.4918 51.9303 37.5369 52.6987 37.3393 53.4224C37.1417 54.146 36.7122 54.7848 36.1168 55.2411C35.5214 55.6973 34.7928 55.9457 34.0426 55.9482H29.4917V46.2729L28.6066 46.2675ZM14.409 24.8798C14.4114 23.042 15.1425 21.2802 16.442 19.9806C17.7415 18.6811 19.5034 17.95 21.3412 17.9476H28.8986V22.0381H21.3412C20.9616 22.0286 20.584 22.0951 20.2306 22.2338C19.8772 22.3724 19.5551 22.5804 19.2833 22.8455C19.0115 23.1106 18.7955 23.4273 18.648 23.7772C18.5005 24.127 18.4245 24.5028 18.4245 24.8825C18.4245 25.2621 18.5005 25.6379 18.648 25.9878C18.7955 26.3376 19.0115 26.6544 19.2833 26.9195C19.5551 27.1845 19.8772 27.3925 20.2306 27.5312C20.584 27.6698 20.9616 27.7364 21.3412 27.7268H28.8986V31.8137H21.3412C20.36 31.8157 19.3898 31.6073 18.4959 31.2028V34.659C18.4969 35.4131 18.797 36.1361 19.3304 36.6692C19.8638 37.2023 20.587 37.502 21.3412 37.5024H28.8986V41.5858H21.3412C19.5035 41.5839 17.7417 40.8532 16.4421 39.5539C15.1425 38.2547 14.4114 36.493 14.409 34.6554V24.8798ZM18.1895 46.3052H17.3116V53.9433H18.1895V55.9679H14.409V53.9433H15.2869V46.3052H14.409V44.2805H18.1895V46.3052ZM22.1886 55.9446H20.164V46.2801H19.1965V44.2554H20.2088C20.4926 44.2548 20.7732 44.3154 21.0314 44.4333C21.2896 44.5511 21.5194 44.7233 21.7049 44.9381C22.2598 44.5385 22.9142 44.2997 23.5961 44.2481C24.278 44.1965 24.9609 44.3341 25.5696 44.6457C26.1783 44.9573 26.6893 45.4308 27.0462 46.0141C27.4031 46.5974 27.5921 47.2679 27.5925 47.9517V55.9446H25.575V47.9517C25.575 47.5027 25.3966 47.072 25.0791 46.7545C24.7615 46.437 24.3309 46.2586 23.8818 46.2586C23.4327 46.2586 23.0021 46.437 22.6846 46.7545C22.367 47.072 22.1886 47.5027 22.1886 47.9517V55.9446ZM66.5265 64.6291C66.2506 65.0734 65.8689 65.1254 65.4515 64.939C64.9408 64.7079 64.4588 64.4176 63.9106 64.1238C63.7869 64.3746 63.6544 64.6004 63.563 64.8405C62.3679 67.9993 60.7213 70.9036 58.4405 73.3995C54.5578 77.6477 49.7596 79.8497 43.9437 79.6257C39.4088 79.4466 35.6373 77.567 32.4641 74.4065C29.4738 71.4286 27.3129 67.8989 25.7076 64.0145C25.3851 63.2351 25.3833 63.2261 24.611 63.5074C24.2527 63.6364 23.8944 63.8174 23.536 63.8353C23.1992 63.855 22.7656 63.7887 22.5309 63.5827C22.3596 63.4256 22.252 63.211 22.2285 62.9798C22.2051 62.7486 22.2674 62.5168 22.4036 62.3285C22.5949 62.0048 22.8704 61.7391 23.201 61.5598C24.9443 60.7966 26.7073 60.0763 28.474 59.3668C28.6918 59.2621 28.9422 59.2476 29.1706 59.3264C29.3991 59.4053 29.5872 59.5711 29.6941 59.7878C29.9826 60.2698 29.9002 60.7428 29.5024 61.0689C29.0293 61.4404 28.5196 61.7628 27.9813 62.0311C27.6623 62.1959 27.5082 62.3195 27.6462 62.7137C28.5062 65.1773 29.6601 67.4653 31.3586 69.4792C33.3707 71.8658 35.8093 73.6163 38.7566 74.6197C42.3258 75.8345 45.9647 76.096 49.6467 75.1769C53.6834 74.1735 56.7509 71.7726 59.1769 68.4723C60.324 66.8993 61.2764 65.1931 62.0131 63.391C62.1726 63.0022 62.0669 62.7961 61.7587 62.5363C61.14 62.0185 60.5553 61.4613 60.0082 60.8682C59.6355 60.4615 59.718 59.9975 60.1014 59.5997C60.2503 59.4228 60.4603 59.3084 60.6896 59.2792C60.919 59.25 61.151 59.3081 61.3395 59.442C62.4575 60.1444 63.5594 60.8754 64.6506 61.6208C65.2096 62.0024 65.7471 62.4217 66.2631 62.8553C66.849 63.3444 66.9117 64.0109 66.5265 64.6291ZM62.0633 46.4628C61.8041 46.3112 61.5091 46.2312 61.2088 46.2312C60.9084 46.2311 60.6135 46.3109 60.3542 46.4625C60.0948 46.614 59.8805 46.8318 59.7331 47.0935C59.5857 47.3552 59.5106 47.6514 59.5155 47.9517V55.9446H57.4926V46.2801H56.5251V44.2554H57.5374C57.8213 44.2548 58.1019 44.3154 58.3601 44.4333C58.6183 44.5511 58.848 44.7233 59.0335 44.9381C59.5883 44.537 60.2431 44.297 60.9257 44.2446C61.6083 44.1921 62.2921 44.3292 62.9016 44.6408C63.5112 44.9523 64.0229 45.4262 64.3802 46.0102C64.7375 46.5941 64.9265 47.2654 64.9265 47.95V55.9428H62.9018V47.9517C62.907 47.6514 62.8321 47.3552 62.6847 47.0935C62.5373 46.8318 62.3228 46.6141 62.0633 46.4628ZM74.2954 52.2071C74.2921 53.2006 73.8959 54.1526 73.1934 54.8551C72.4908 55.5577 71.5389 55.9538 70.5453 55.9571H66.8114V46.2729H65.9352V44.2554H70.5489C71.5428 44.2587 72.495 44.6551 73.1976 45.3581C73.9002 46.061 74.2961 47.0134 74.299 48.0073L74.2954 52.2071ZM74.2954 41.5607H70.2085V25.0303C70.2085 24.2291 69.8902 23.4608 69.3237 22.8942C68.7572 22.3277 67.9888 22.0095 67.1876 22.0095C66.3865 22.0095 65.6181 22.3277 65.0516 22.8942C64.4851 23.4608 64.1668 24.2291 64.1668 25.0303V41.5679H60.0799V25.0303C60.0799 24.2291 59.7616 23.4608 59.1951 22.8942C58.6286 22.3277 57.8602 22.0095 57.059 22.0095C56.2579 22.0095 55.4895 22.3277 54.923 22.8942C54.3565 23.4608 54.0382 24.2291 54.0382 25.0303V41.5679H49.9513V22.0525H47.9983V17.9656H50.0427C50.5882 17.9643 51.1282 18.075 51.6293 18.2907C52.1304 18.5065 52.5819 18.8226 52.956 19.2198C54.3321 18.2441 56.0108 17.7906 57.6909 17.9407C59.3711 18.0908 60.9428 18.8345 62.1242 20.0386C63.1126 19.0316 64.3786 18.3418 65.7606 18.0572C67.1426 17.7726 68.5781 17.9062 69.8839 18.4407C71.1897 18.9753 72.3067 19.8868 73.0924 21.0588C73.8781 22.2308 74.2969 23.6103 74.2954 25.0213V41.5607Z" fill="white"/>
</svg>
